<svg width="1051" height="254" viewBox="0 0 1051 254" fill="none" xmlns="http://www.w3.org/2000/svg">
<path d="M216.82 154.448C232.698 158.818 249.496 149.388 249.986 132.908C250.485 116.128 247.612 99.3151 241.419 83.4967C231.573 58.3454 213.865 37.0583 190.94 22.8145C168.015 8.5708 141.103 2.13481 114.224 4.46783C87.3444 6.80085 61.9401 17.7777 41.805 35.7589C21.6699 53.7401 7.88454 77.7607 2.50782 104.233C-2.8689 130.706 0.451554 158.21 11.9733 182.637C23.495 207.064 42.5996 227.104 66.4339 239.763C81.4241 247.725 97.7791 252.499 114.485 253.914C130.894 255.303 142.164 239.667 139.636 223.375C137.108 207.082 121.303 196.592 105.58 191.69C101.73 190.49 97.9792 188.929 94.3787 187.017C81.9129 180.396 71.9208 169.915 65.8947 157.139C59.8687 144.363 58.132 129.978 60.9441 116.132C63.7562 102.287 70.9663 89.7232 81.4973 80.3187C92.0284 70.9142 105.315 65.1731 119.374 63.9529C133.432 62.7327 147.508 66.0988 159.498 73.5486C171.488 80.9983 180.75 92.1319 185.899 105.287C187.387 109.086 188.508 112.995 189.261 116.962C192.333 133.16 200.942 150.077 216.82 154.448Z" fill="url(#paint0_linear_604_263)"/>
<path d="M179.629 235.852C177.476 243.694 169.381 248.304 161.548 246.148C153.716 243.992 149.112 235.887 151.265 228.044C153.418 220.202 161.513 215.592 169.346 217.748C177.178 219.904 181.783 228.009 179.629 235.852Z" fill="url(#paint1_linear_604_263)"/>
<path d="M237.769 190.762C235.615 198.604 227.52 203.214 219.688 201.058C211.855 198.902 207.251 190.797 209.404 182.954C211.558 175.112 219.653 170.502 227.485 172.658C235.318 174.814 239.922 182.919 237.769 190.762Z" fill="url(#paint2_linear_604_263)"/>
<path d="M199.256 178.252C194.142 196.878 174.916 207.826 156.314 202.706C137.711 197.585 126.777 178.335 131.891 159.709C137.005 141.083 156.231 130.134 174.833 135.255C193.435 140.375 204.37 159.626 199.256 178.252Z" fill="url(#paint3_linear_604_263)"/>
<path d="M233.165 235.314C229.935 247.078 217.793 253.993 206.044 250.759C194.295 247.525 187.389 235.367 190.619 223.603C193.848 211.839 205.991 204.924 217.74 208.158C229.489 211.392 236.395 223.55 233.165 235.314Z" fill="url(#paint4_linear_604_263)"/>
<path d="M363.211 122.667C360.1 125.111 356.377 127.056 352.043 128.5C347.709 129.944 343.375 130.667 339.04 130.667C331.484 130.667 324.871 129.167 319.204 126.167C313.536 123.167 309.091 119 305.868 113.667C302.757 108.222 301.201 101.833 301.201 94.5C301.201 87.1667 302.868 80.7778 306.202 75.3333C309.647 69.8889 314.092 65.7222 319.537 62.8333C325.094 59.8333 331.039 58.3333 337.374 58.3333C342.93 58.3333 347.875 59.1111 352.209 60.6667C356.655 62.2222 360.433 64.3333 363.545 67L355.877 77C353.876 75.4444 351.431 74.0556 348.542 72.8333C345.653 71.6111 342.374 71 338.707 71C334.706 71 330.984 72.0555 327.539 74.1667C324.205 76.1667 321.538 78.9444 319.537 82.5C317.648 86.0555 316.703 90.0555 316.703 94.5C316.703 98.7222 317.704 102.667 319.704 106.333C321.704 109.889 324.482 112.722 328.039 114.833C331.595 116.833 335.651 117.833 340.207 117.833C343.208 117.833 345.931 117.389 348.375 116.5C350.931 115.611 353.21 114.389 355.21 112.833L363.211 122.667Z" fill="#1C1C1C"/>
<path d="M377.223 93.8333C377.223 86.9444 378.834 80.7222 382.057 75.1667C385.391 69.6111 389.947 65.2222 395.726 62C401.504 58.7778 408.061 57.1667 415.396 57.1667C422.952 57.1667 429.565 58.7778 435.232 62C440.9 65.2222 445.289 69.6111 448.401 75.1667C451.513 80.7222 453.069 86.9444 453.069 93.8333C453.069 100.722 451.513 107 448.401 112.667C445.289 118.222 440.844 122.611 435.066 125.833C429.398 129.056 422.786 130.667 415.229 130.667C407.894 130.667 401.338 129.167 395.559 126.167C389.891 123.056 385.391 118.778 382.057 113.333C378.834 107.778 377.223 101.278 377.223 93.8333ZM392.725 94C392.725 98.4444 393.725 102.5 395.726 106.167C397.726 109.722 400.393 112.556 403.727 114.667C407.172 116.778 410.95 117.833 415.062 117.833C419.396 117.833 423.23 116.778 426.564 114.667C430.009 112.556 432.676 109.722 434.565 106.167C436.455 102.5 437.399 98.4444 437.399 94C437.399 89.5555 436.455 85.5555 434.565 82C432.676 78.3333 430.009 75.4444 426.564 73.3333C423.23 71.1111 419.396 70 415.062 70C410.839 70 407.005 71.1111 403.56 73.3333C400.226 75.5556 397.559 78.5 395.559 82.1667C393.67 85.7222 392.725 89.6667 392.725 94Z" fill="#1C1C1C"/>
<path d="M502.064 130.667C495.729 130.667 489.951 129.167 484.727 126.167C479.615 123.056 475.559 118.722 472.559 113.167C469.558 107.5 468.058 101 468.058 93.6667C468.058 86 469.614 79.4444 472.725 74C475.948 68.5555 480.282 64.3889 485.728 61.5C491.173 58.6111 497.285 57.1667 504.064 57.1667C509.509 57.1667 514.677 58.3333 519.567 60.6667C524.567 63 528.457 66.2222 531.235 70.3333L530.568 75.8333V0H545.904V129H530.402V111.833L532.069 116.167C528.846 120.389 524.678 123.889 519.567 126.667C514.455 129.333 508.62 130.667 502.064 130.667ZM506.898 117.5C511.01 117.5 514.677 116.778 517.9 115.333C521.122 113.778 523.79 111.667 525.901 109C528.012 106.333 529.513 103.167 530.402 99.5V86.5C529.513 83.1667 527.901 80.2778 525.568 77.8333C523.345 75.2778 520.622 73.2778 517.4 71.8333C514.288 70.2778 510.787 69.5 506.898 69.5C502.675 69.5 498.785 70.5555 495.229 72.6667C491.784 74.6667 489.006 77.4444 486.894 81C484.783 84.5555 483.727 88.6667 483.727 93.3333C483.727 97.8889 484.783 102 486.894 105.667C489.006 109.222 491.84 112.111 495.396 114.333C498.952 116.444 502.786 117.5 506.898 117.5Z" fill="#1C1C1C"/>
<path d="M604.876 130.667C596.986 130.667 590.207 129.111 584.54 126C578.872 122.778 574.482 118.444 571.371 113C568.37 107.444 566.87 101.111 566.87 94C566.87 87.2222 568.593 81.0555 572.038 75.5C575.483 69.9444 580.094 65.5 585.873 62.1667C591.652 58.8333 598.097 57.1667 605.21 57.1667C614.322 57.1667 621.879 59.8333 627.88 65.1667C633.881 70.5 637.937 77.8333 640.049 87.1667L583.206 107.167L579.539 98L626.213 81L622.879 83.1667C621.546 79.5 619.323 76.3333 616.212 73.6667C613.1 70.8889 609.044 69.5 604.043 69.5C599.82 69.5 596.041 70.5555 592.708 72.6667C589.374 74.6667 586.762 77.4444 584.873 81C582.984 84.5555 582.039 88.6111 582.039 93.1667C582.039 97.9444 583.039 102.167 585.04 105.833C587.04 109.389 589.763 112.222 593.208 114.333C596.764 116.333 600.765 117.333 605.21 117.333C608.21 117.333 611.1 116.778 613.878 115.667C616.767 114.556 619.434 113.111 621.879 111.333L629.047 122.833C625.602 125.167 621.712 127.056 617.378 128.5C613.155 129.944 608.988 130.667 604.876 130.667Z" fill="#1C1C1C"/>
<path d="M673.31 60L674.81 80L673.976 77.3333C675.754 73.1111 678.31 69.5556 681.644 66.6667C685.089 63.6667 688.645 61.3889 692.313 59.8333C696.091 58.1667 699.369 57.3333 702.148 57.3333L701.314 72.6667C696.091 72.3333 691.479 73.3333 687.479 75.6667C683.589 78 680.477 81.1111 678.144 85C675.921 88.8889 674.81 93.0555 674.81 97.5V129H659.474V60H673.31Z" fill="#1C1C1C"/>
<path d="M741.484 130.333C736.594 130.333 731.815 129.5 727.148 127.833C722.592 126.056 718.813 123.444 715.813 120L722.314 111C725.203 113.778 728.148 115.889 731.149 117.333C734.26 118.667 737.316 119.333 740.317 119.333C742.539 119.333 744.595 119.056 746.484 118.5C748.374 117.944 749.874 117.056 750.985 115.833C752.208 114.5 752.819 112.722 752.819 110.5C752.819 108.056 751.985 106.111 750.318 104.667C748.763 103.222 746.707 102.056 744.151 101.167C741.706 100.278 739.094 99.4444 736.316 98.6667C730.648 96.7778 726.314 94.1667 723.314 90.8333C720.313 87.5 718.813 83.4444 718.813 78.6667C718.813 75 719.702 71.6111 721.48 68.5C723.37 65.2778 726.092 62.6667 729.648 60.6667C733.316 58.6667 737.816 57.6667 743.151 57.6667C747.929 57.6667 752.208 58.2778 755.986 59.5C759.764 60.6111 763.321 62.5 766.654 65.1667L760.487 74.8333C758.487 72.7222 756.097 71.1667 753.319 70.1667C750.541 69.1667 748.04 68.6111 745.818 68.5C743.928 68.3889 742.095 68.6667 740.317 69.3333C738.65 70 737.261 70.9444 736.149 72.1667C735.038 73.3889 734.482 74.8333 734.482 76.5C734.482 78.8333 735.26 80.7222 736.816 82.1667C738.372 83.6111 740.372 84.7778 742.817 85.6667C745.373 86.4444 747.874 87.2778 750.318 88.1667C753.763 89.1667 756.82 90.5 759.487 92.1667C762.154 93.8333 764.265 95.8889 765.821 98.3333C767.488 100.778 768.321 103.833 768.321 107.5C768.321 111.611 767.321 115.444 765.321 119C763.432 122.444 760.487 125.222 756.486 127.333C752.597 129.333 747.596 130.333 741.484 130.333Z" fill="#1C1C1C"/>
<path d="M817.701 130.667C811.589 130.667 805.977 129.167 800.865 126.167C795.753 123.167 791.641 119 788.529 113.667C785.529 108.222 784.029 101.833 784.029 94.5C784.029 86.9444 785.64 80.3889 788.863 74.8333C792.196 69.2778 796.586 64.9444 802.031 61.8333C807.588 58.7222 813.645 57.1667 820.201 57.1667C826.424 57.1667 831.925 58.5556 836.704 61.3333C841.482 64 845.316 67.5 848.206 71.8333L846.372 76.6667V59H861.875V162.167H846.539V111.333L847.206 117.833C844.539 121.611 840.593 124.722 835.37 127.167C830.147 129.5 824.257 130.667 817.701 130.667ZM822.868 118.333C826.869 118.333 830.536 117.556 833.87 116C837.204 114.444 839.927 112.333 842.038 109.667C844.261 106.889 845.705 103.722 846.372 100.167V88.5C845.483 84.9445 843.983 81.8333 841.871 79.1667C839.76 76.3889 837.093 74.2222 833.87 72.6667C830.647 71.1111 826.98 70.3333 822.868 70.3333C818.756 70.3333 814.922 71.3889 811.366 73.5C807.81 75.6111 804.976 78.5 802.865 82.1667C800.753 85.8333 799.698 89.9444 799.698 94.5C799.698 99.0555 800.753 103.111 802.865 106.667C804.976 110.222 807.81 113.056 811.366 115.167C814.922 117.278 818.756 118.333 822.868 118.333Z" fill="#1C1C1C"/>
<path d="M910.678 131.667C904.455 131.667 899.288 129.778 895.176 126C891.175 122.111 889.064 117.111 888.841 111V60H904.344V105.5C904.566 109.278 905.622 112.333 907.511 114.667C909.512 117 912.623 118.222 916.846 118.333C920.736 118.333 924.181 117.222 927.181 115C930.293 112.667 932.793 109.556 934.682 105.667C936.572 101.667 937.516 97.1667 937.516 92.1667V60H953.019V129H938.85L937.516 112L938.35 115C937.016 118.222 934.96 121.111 932.182 123.667C929.515 126.111 926.348 128.056 922.68 129.5C919.013 130.944 915.013 131.667 910.678 131.667Z" fill="#1C1C1C"/>
<path d="M1011.85 130.667C1003.95 130.667 997.176 129.111 991.508 126C985.841 122.778 981.451 118.444 978.339 113C975.339 107.444 973.839 101.111 973.839 94C973.839 87.2222 975.561 81.0555 979.006 75.5C982.451 69.9444 987.063 65.5 992.842 62.1667C998.621 58.8333 1005.07 57.1667 1012.18 57.1667C1021.29 57.1667 1028.85 59.8333 1034.85 65.1667C1040.85 70.5 1044.91 77.8333 1047.02 87.1667L990.175 107.167L986.507 98L1033.18 81L1029.85 83.1667C1028.51 79.5 1026.29 76.3333 1023.18 73.6667C1020.07 70.8889 1016.01 69.5 1011.01 69.5C1006.79 69.5 1003.01 70.5555 999.676 72.6667C996.342 74.6667 993.731 77.4444 991.842 81C989.952 84.5555 989.008 88.6111 989.008 93.1667C989.008 97.9444 990.008 102.167 992.008 105.833C994.009 109.389 996.731 112.222 1000.18 114.333C1003.73 116.333 1007.73 117.333 1012.18 117.333C1015.18 117.333 1018.07 116.778 1020.85 115.667C1023.74 114.556 1026.4 113.111 1028.85 111.333L1036.02 122.833C1032.57 125.167 1028.68 127.056 1024.35 128.5C1020.12 129.944 1015.96 130.667 1011.85 130.667Z" fill="#1C1C1C"/>
<path d="M341.057 184.516V191.159H327.84V234.159H319.696V191.159H306.408V184.516H341.057Z" fill="#1C1C1C"/>
<path d="M385.382 213.516C385.382 214.992 385.287 216.325 385.096 217.516H355.02C355.258 220.659 356.425 223.183 358.521 225.087C360.616 226.992 363.188 227.944 366.236 227.944C370.618 227.944 373.714 226.111 375.523 222.444H384.311C383.12 226.063 380.953 229.04 377.809 231.373C374.714 233.659 370.856 234.802 366.236 234.802C362.474 234.802 359.092 233.968 356.092 232.302C353.139 230.587 350.805 228.206 349.09 225.159C347.423 222.063 346.59 218.492 346.59 214.444C346.59 210.397 347.4 206.849 349.019 203.802C350.686 200.706 352.996 198.325 355.949 196.659C358.949 194.992 362.378 194.159 366.236 194.159C369.951 194.159 373.261 194.968 376.166 196.587C379.072 198.206 381.334 200.492 382.953 203.444C384.572 206.349 385.382 209.706 385.382 213.516ZM376.881 210.944C376.833 207.944 375.761 205.54 373.666 203.73C371.57 201.921 368.975 201.016 365.879 201.016C363.069 201.016 360.664 201.921 358.663 203.73C356.663 205.492 355.472 207.897 355.091 210.944H376.881Z" fill="#1C1C1C"/>
<path d="M390.682 214.444C390.682 210.397 391.492 206.849 393.111 203.802C394.778 200.706 397.064 198.325 399.969 196.659C402.875 194.992 406.208 194.159 409.971 194.159C414.734 194.159 418.663 195.302 421.759 197.587C424.902 199.825 427.021 203.04 428.117 207.23H419.33C418.615 205.278 417.472 203.754 415.901 202.659C414.329 201.563 412.352 201.016 409.971 201.016C406.637 201.016 403.97 202.206 401.97 204.587C400.017 206.921 399.041 210.206 399.041 214.444C399.041 218.683 400.017 221.992 401.97 224.373C403.97 226.754 406.637 227.944 409.971 227.944C414.686 227.944 417.806 225.873 419.33 221.73H428.117C426.974 225.73 424.831 228.921 421.687 231.302C418.544 233.635 414.638 234.802 409.971 234.802C406.208 234.802 402.875 233.968 399.969 232.302C397.064 230.587 394.778 228.206 393.111 225.159C391.492 222.063 390.682 218.492 390.682 214.444Z" fill="#1C1C1C"/>
<path d="M456.594 194.159C459.594 194.159 462.261 194.802 464.595 196.087C466.976 197.373 468.834 199.278 470.167 201.802C471.549 204.325 472.239 207.373 472.239 210.944V234.159H464.166V212.159C464.166 208.635 463.285 205.944 461.523 204.087C459.761 202.183 457.356 201.23 454.308 201.23C451.26 201.23 448.831 202.183 447.021 204.087C445.259 205.944 444.377 208.635 444.377 212.159V234.159H436.233V181.302H444.377V199.373C445.759 197.706 447.497 196.421 449.593 195.516C451.736 194.611 454.07 194.159 456.594 194.159Z" fill="#1C1C1C"/>
<path d="M502.488 194.159C505.584 194.159 508.346 194.802 510.775 196.087C513.252 197.373 515.181 199.278 516.562 201.802C517.943 204.325 518.634 207.373 518.634 210.944V234.159H510.561V212.159C510.561 208.635 509.68 205.944 507.918 204.087C506.155 202.183 503.75 201.23 500.702 201.23C497.654 201.23 495.225 202.183 493.415 204.087C491.653 205.944 490.772 208.635 490.772 212.159V234.159H482.628V194.802H490.772V199.302C492.105 197.683 493.796 196.421 495.844 195.516C497.94 194.611 500.154 194.159 502.488 194.159Z" fill="#1C1C1C"/>
<path d="M546.096 234.802C542.381 234.802 539.024 233.968 536.023 232.302C533.023 230.587 530.665 228.206 528.951 225.159C527.236 222.063 526.379 218.492 526.379 214.444C526.379 210.444 527.26 206.897 529.022 203.802C530.784 200.706 533.189 198.325 536.238 196.659C539.286 194.992 542.691 194.159 546.454 194.159C550.216 194.159 553.621 194.992 556.669 196.659C559.718 198.325 562.123 200.706 563.885 203.802C565.647 206.897 566.528 210.444 566.528 214.444C566.528 218.444 565.623 221.992 563.814 225.087C562.004 228.183 559.527 230.587 556.384 232.302C553.288 233.968 549.859 234.802 546.096 234.802ZM546.096 227.73C548.192 227.73 550.145 227.23 551.954 226.23C553.812 225.23 555.312 223.73 556.455 221.73C557.598 219.73 558.17 217.302 558.17 214.444C558.17 211.587 557.622 209.183 556.527 207.23C555.431 205.23 553.979 203.73 552.169 202.73C550.359 201.73 548.406 201.23 546.311 201.23C544.215 201.23 542.262 201.73 540.453 202.73C538.69 203.73 537.285 205.23 536.238 207.23C535.19 209.183 534.666 211.587 534.666 214.444C534.666 218.683 535.737 221.968 537.881 224.302C540.072 226.587 542.81 227.73 546.096 227.73Z" fill="#1C1C1C"/>
<path d="M582.724 181.302V234.159H574.579V181.302H582.724Z" fill="#1C1C1C"/>
<path d="M610.49 234.802C606.775 234.802 603.418 233.968 600.417 232.302C597.417 230.587 595.059 228.206 593.345 225.159C591.63 222.063 590.773 218.492 590.773 214.444C590.773 210.444 591.654 206.897 593.416 203.802C595.178 200.706 597.583 198.325 600.632 196.659C603.68 194.992 607.085 194.159 610.848 194.159C614.61 194.159 618.016 194.992 621.064 196.659C624.112 198.325 626.517 200.706 628.279 203.802C630.041 206.897 630.922 210.444 630.922 214.444C630.922 218.444 630.017 221.992 628.208 225.087C626.398 228.183 623.921 230.587 620.778 232.302C617.682 233.968 614.253 234.802 610.49 234.802ZM610.49 227.73C612.586 227.73 614.539 227.23 616.349 226.23C618.206 225.23 619.706 223.73 620.849 221.73C621.992 219.73 622.564 217.302 622.564 214.444C622.564 211.587 622.016 209.183 620.921 207.23C619.825 205.23 618.373 203.73 616.563 202.73C614.753 201.73 612.8 201.23 610.705 201.23C608.609 201.23 606.656 201.73 604.847 202.73C603.084 203.73 601.679 205.23 600.632 207.23C599.584 209.183 599.06 211.587 599.06 214.444C599.06 218.683 600.132 221.968 602.275 224.302C604.466 226.587 607.204 227.73 610.49 227.73Z" fill="#1C1C1C"/>
<path d="M654.833 194.159C657.881 194.159 660.572 194.778 662.906 196.016C665.287 197.206 667.145 198.706 668.478 200.516V194.802H676.694V234.802C676.694 238.421 675.932 241.635 674.408 244.444C672.884 247.302 670.669 249.54 667.764 251.159C664.906 252.778 661.477 253.587 657.476 253.587C652.142 253.587 647.713 252.325 644.189 249.802C640.664 247.325 638.664 243.944 638.188 239.659H646.26C646.879 241.706 648.189 243.349 650.19 244.587C652.237 245.873 654.666 246.516 657.476 246.516C660.763 246.516 663.406 245.516 665.406 243.516C667.454 241.516 668.478 238.611 668.478 234.802V228.23C667.097 230.087 665.216 231.659 662.834 232.944C660.501 234.183 657.834 234.802 654.833 234.802C651.404 234.802 648.261 233.944 645.403 232.23C642.593 230.468 640.355 228.04 638.688 224.944C637.068 221.802 636.259 218.254 636.259 214.302C636.259 210.349 637.068 206.849 638.688 203.802C640.355 200.754 642.593 198.397 645.403 196.73C648.261 195.016 651.404 194.159 654.833 194.159ZM668.478 214.444C668.478 211.73 667.907 209.373 666.764 207.373C665.668 205.373 664.216 203.849 662.406 202.802C660.596 201.754 658.643 201.23 656.548 201.23C654.452 201.23 652.499 201.754 650.69 202.802C648.88 203.802 647.403 205.302 646.26 207.302C645.165 209.254 644.617 211.587 644.617 214.302C644.617 217.016 645.165 219.397 646.26 221.444C647.403 223.492 648.88 225.063 650.69 226.159C652.547 227.206 654.5 227.73 656.548 227.73C658.643 227.73 660.596 227.206 662.406 226.159C664.216 225.111 665.668 223.587 666.764 221.587C667.907 219.54 668.478 217.159 668.478 214.444Z" fill="#1C1C1C"/>
<path d="M691.535 189.587C690.058 189.587 688.82 189.087 687.82 188.087C686.819 187.087 686.319 185.849 686.319 184.373C686.319 182.897 686.819 181.659 687.82 180.659C688.82 179.659 690.058 179.159 691.535 179.159C692.963 179.159 694.178 179.659 695.178 180.659C696.178 181.659 696.678 182.897 696.678 184.373C696.678 185.849 696.178 187.087 695.178 188.087C694.178 189.087 692.963 189.587 691.535 189.587ZM695.535 194.802V234.159H687.391V194.802H695.535Z" fill="#1C1C1C"/>
<path d="M742.305 213.516C742.305 214.992 742.21 216.325 742.02 217.516H711.943C712.181 220.659 713.348 223.183 715.444 225.087C717.539 226.992 720.111 227.944 723.159 227.944C727.541 227.944 730.637 226.111 732.446 222.444H741.234C740.043 226.063 737.876 229.04 734.733 231.373C731.637 233.659 727.779 234.802 723.159 234.802C719.397 234.802 716.015 233.968 713.015 232.302C710.062 230.587 707.728 228.206 706.014 225.159C704.347 222.063 703.513 218.492 703.513 214.444C703.513 210.397 704.323 206.849 705.942 203.802C707.609 200.706 709.919 198.325 712.872 196.659C715.872 194.992 719.301 194.159 723.159 194.159C726.874 194.159 730.184 194.968 733.089 196.587C735.995 198.206 738.257 200.492 739.876 203.444C741.496 206.349 742.305 209.706 742.305 213.516ZM733.804 210.944C733.756 207.944 732.685 205.54 730.589 203.73C728.493 201.921 725.898 201.016 722.802 201.016C719.992 201.016 717.587 201.921 715.587 203.73C713.586 205.492 712.396 207.897 712.015 210.944H733.804Z" fill="#1C1C1C"/>
<path d="M764.608 234.802C761.512 234.802 758.726 234.254 756.25 233.159C753.821 232.016 751.892 230.492 750.463 228.587C749.034 226.635 748.272 224.468 748.177 222.087H756.607C756.75 223.754 757.535 225.159 758.964 226.302C760.441 227.397 762.274 227.944 764.465 227.944C766.751 227.944 768.514 227.516 769.752 226.659C771.038 225.754 771.681 224.611 771.681 223.23C771.681 221.754 770.966 220.659 769.537 219.944C768.156 219.23 765.942 218.444 762.894 217.587C759.941 216.778 757.535 215.992 755.678 215.23C753.821 214.468 752.201 213.302 750.82 211.73C749.487 210.159 748.82 208.087 748.82 205.516C748.82 203.421 749.439 201.516 750.677 199.802C751.916 198.04 753.678 196.659 755.964 195.659C758.298 194.659 760.965 194.159 763.965 194.159C768.442 194.159 772.038 195.302 774.753 197.587C777.515 199.825 778.991 202.897 779.182 206.802H771.038C770.895 205.04 770.18 203.635 768.895 202.587C767.609 201.54 765.87 201.016 763.679 201.016C761.536 201.016 759.893 201.421 758.75 202.23C757.607 203.04 757.035 204.111 757.035 205.444C757.035 206.492 757.416 207.373 758.178 208.087C758.94 208.802 759.869 209.373 760.965 209.802C762.06 210.183 763.679 210.683 765.823 211.302C768.68 212.063 771.014 212.849 772.824 213.659C774.681 214.421 776.277 215.563 777.61 217.087C778.944 218.611 779.634 220.635 779.682 223.159C779.682 225.397 779.063 227.397 777.825 229.159C776.586 230.921 774.824 232.302 772.538 233.302C770.299 234.302 767.656 234.802 764.608 234.802Z" fill="#1C1C1C"/>
<path d="M841.76 199.302C841.76 201.825 841.164 204.206 839.974 206.444C838.783 208.683 836.878 210.516 834.259 211.944C831.639 213.325 828.281 214.016 824.185 214.016H815.184V234.159H807.04V184.516H824.185C827.996 184.516 831.211 185.183 833.83 186.516C836.497 187.802 838.474 189.563 839.76 191.802C841.093 194.04 841.76 196.54 841.76 199.302ZM824.185 207.373C827.281 207.373 829.591 206.683 831.115 205.302C832.639 203.873 833.401 201.873 833.401 199.302C833.401 193.873 830.329 191.159 824.185 191.159H815.184V207.373H824.185Z" fill="#1C1C1C"/>
<path d="M864.744 226.873L875.889 194.802H884.533L869.531 234.159H859.815L844.884 194.802H853.599L864.744 226.873Z" fill="#1C1C1C"/>
<path d="M900.191 201.444V223.23C900.191 224.706 900.524 225.778 901.191 226.444C901.906 227.063 903.096 227.373 904.763 227.373H909.764V234.159H903.334C899.667 234.159 896.857 233.302 894.904 231.587C892.952 229.873 891.975 227.087 891.975 223.23V201.444H887.332V194.802H891.975V185.016H900.191V194.802H909.764V201.444H900.191Z" fill="#1C1C1C"/>
<path d="M943.972 227.587H960.761V234.159H935.828V184.516H943.972V227.587Z" fill="#1C1C1C"/>
<path d="M977.073 201.444V223.23C977.073 224.706 977.406 225.778 978.073 226.444C978.788 227.063 979.978 227.373 981.645 227.373H986.646V234.159H980.216C976.549 234.159 973.739 233.302 971.786 231.587C969.834 229.873 968.857 227.087 968.857 223.23V201.444H964.214V194.802H968.857V185.016H977.073V194.802H986.646V201.444H977.073Z" fill="#1C1C1C"/>
<path d="M991.438 214.302C991.438 210.349 992.247 206.849 993.867 203.802C995.534 200.754 997.772 198.397 1000.58 196.73C1003.44 195.016 1006.61 194.159 1010.08 194.159C1012.66 194.159 1015.18 194.73 1017.66 195.873C1020.18 196.968 1022.18 198.444 1023.66 200.302V181.302H1031.87V234.159H1023.66V228.23C1022.32 230.135 1020.47 231.706 1018.08 232.944C1015.75 234.183 1013.06 234.802 1010.01 234.802C1006.58 234.802 1003.44 233.944 1000.58 232.23C997.772 230.468 995.534 228.04 993.867 224.944C992.247 221.802 991.438 218.254 991.438 214.302ZM1023.66 214.444C1023.66 211.73 1023.09 209.373 1021.94 207.373C1020.85 205.373 1019.39 203.849 1017.58 202.802C1015.78 201.754 1013.82 201.23 1011.73 201.23C1009.63 201.23 1007.68 201.754 1005.87 202.802C1004.06 203.802 1002.58 205.302 1001.44 207.302C1000.34 209.254 999.796 211.587 999.796 214.302C999.796 217.016 1000.34 219.397 1001.44 221.444C1002.58 223.492 1004.06 225.063 1005.87 226.159C1007.73 227.206 1009.68 227.73 1011.73 227.73C1013.82 227.73 1015.78 227.206 1017.58 226.159C1019.39 225.111 1020.85 223.587 1021.94 221.587C1023.09 219.54 1023.66 217.159 1023.66 214.444Z" fill="#1C1C1C"/>
<path d="M1045.86 234.659C1044.38 234.659 1043.14 234.159 1042.14 233.159C1041.14 232.159 1040.64 230.921 1040.64 229.444C1040.64 227.968 1041.14 226.73 1042.14 225.73C1043.14 224.73 1044.38 224.23 1045.86 224.23C1047.29 224.23 1048.5 224.73 1049.5 225.73C1050.5 226.73 1051 227.968 1051 229.444C1051 230.921 1050.5 232.159 1049.5 233.159C1048.5 234.159 1047.29 234.659 1045.86 234.659Z" fill="#1C1C1C"/>
<defs>
<linearGradient id="paint0_linear_604_263" x1="0" y1="0" x2="115.996" y2="479.967" gradientUnits="userSpaceOnUse">
<stop stop-color="#FAB2FF"/>
<stop offset="0.635417" stop-color="#1904E5"/>
</linearGradient>
<linearGradient id="paint1_linear_604_263" x1="0" y1="0" x2="115.996" y2="479.967" gradientUnits="userSpaceOnUse">
<stop stop-color="#FAB2FF"/>
<stop offset="0.635417" stop-color="#1904E5"/>
</linearGradient>
<linearGradient id="paint2_linear_604_263" x1="0" y1="0" x2="115.996" y2="479.967" gradientUnits="userSpaceOnUse">
<stop stop-color="#FAB2FF"/>
<stop offset="0.635417" stop-color="#1904E5"/>
</linearGradient>
<linearGradient id="paint3_linear_604_263" x1="0" y1="0" x2="115.996" y2="479.967" gradientUnits="userSpaceOnUse">
<stop stop-color="#FAB2FF"/>
<stop offset="0.635417" stop-color="#1904E5"/>
</linearGradient>
<linearGradient id="paint4_linear_604_263" x1="0" y1="0" x2="115.996" y2="479.967" gradientUnits="userSpaceOnUse">
<stop stop-color="#FAB2FF"/>
<stop offset="0.635417" stop-color="#1904E5"/>
</linearGradient>
</defs>
</svg>
