<!--?xml version="1.0" standalone="no"?-->
              <svg id="sw-js-blob-svg" viewBox="0 0 100 100" xmlns="http://www.w3.org/2000/svg" version="1.1">
                    <defs> 
                        <linearGradient id="sw-gradient" x1="0" x2="1" y1="1" y2="0">
                            <stop id="stop1" stop-color="rgba(248, 117, 55, 1)" offset="0%"></stop>
                            <stop id="stop2" stop-color="rgba(251, 168, 31, 1)" offset="100%"></stop>
                        </linearGradient>
                    </defs>
                <path fill="url(#sw-gradient)" d="M21.2,-26.9C26.6,-20.7,29.4,-13.2,32.3,-4.6C35.2,4.1,38.1,13.9,35.5,22.5C32.9,31.1,24.9,38.6,15.8,40.7C6.8,42.8,-3.2,39.5,-12.2,35.4C-21.3,31.4,-29.4,26.5,-35.3,19.1C-41.1,11.6,-44.6,1.6,-42.7,-7.2C-40.8,-16.1,-33.5,-23.7,-25.5,-29.4C-17.5,-35.1,-8.7,-38.9,-0.4,-38.4C7.9,-38,15.8,-33.1,21.2,-26.9Z" width="100%" height="100%" transform="translate(50 50)" style="transition: all 0.3s ease 0s;" stroke-width="0"></path>
              </svg>