<svg xmlns="http://www.w3.org/2000/svg" xmlns:xlink="http://www.w3.org/1999/xlink" version="1.1" width="1000" height="1000" viewBox="0 0 1000 1000" xml:space="preserve">
<desc>Created with Fabric.js 3.5.0</desc>
<defs>
</defs>
<rect x="0" y="0" width="100%" height="100%" fill="rgba(255,255,255,0)"/>
<g transform="matrix(1.8976 0 0 1.8976 500.9664 500.0078)" id="705145">
<g style="" vector-effect="non-scaling-stroke">
		<g transform="matrix(1 0 0 1 71.628 -104.1131)" id="Vector" clip-path="url(#CLIPPATH_17)">
<clipPath id="CLIPPATH_17">
	<rect transform="matrix(1 0 0 1 -71.628 104.1131)" id="clip0" x="-264" y="-209.5" rx="0" ry="0" width="528" height="419"/>
</clipPath>
<path style="stroke: none; stroke-width: 1; stroke-dasharray: none; stroke-linecap: butt; stroke-dashoffset: 0; stroke-linejoin: miter; stroke-miterlimit: 4; is-custom-font: none; font-file-url: none; fill: rgb(56,155,243); fill-rule: nonzero; opacity: 0.8;" transform=" translate(-335.628, -105.3869)" d="M 409.862 77.1692 L 280.077 162.088 C 278.196 163.323 276.09 164.173 273.882 164.59 C 271.673 165.006 269.405 164.981 267.206 164.516 C 262.765 163.576 258.877 160.901 256.398 157.078 C 255.17 155.185 254.325 153.068 253.911 150.846 C 253.497 148.625 253.522 146.343 253.985 144.132 C 254.919 139.665 257.579 135.755 261.38 133.261 L 391.229 48.6675 C 393.111 47.437 395.215 46.5913 397.422 46.1788 C 399.629 45.7663 401.895 45.795 404.091 46.2633 C 406.286 46.7316 408.369 47.6303 410.22 48.9081 C 412.07 50.1859 413.652 51.8178 414.876 53.7106 C 416.099 55.6034 416.94 57.7201 417.35 59.9397 C 417.76 62.1593 417.732 64.4385 417.266 66.647 C 416.801 68.8556 415.907 70.9502 414.636 72.8115 C 413.366 74.6727 411.744 76.264 409.862 77.4945 V 77.1692 Z" stroke-linecap="round"/>
</g>
		<g transform="matrix(1 0 0 1 -80.387 -5.0183)" id="Vector_2" clip-path="url(#CLIPPATH_18)">
<clipPath id="CLIPPATH_18">
	<rect transform="matrix(1 0 0 1 80.387 5.0183)" id="clip0" x="-264" y="-209.5" rx="0" ry="0" width="528" height="419"/>
</clipPath>
<path style="stroke: none; stroke-width: 1; stroke-dasharray: none; stroke-linecap: butt; stroke-dashoffset: 0; stroke-linejoin: miter; stroke-miterlimit: 4; is-custom-font: none; font-file-url: none; fill: rgb(255,157,35); fill-rule: nonzero; opacity: 0.8;" transform=" translate(-183.613, -204.4817)" d="M 236.342 190.654 L 149.517 247.267 C 145.717 249.752 141.09 250.617 136.655 249.671 C 132.221 248.725 128.341 246.046 125.87 242.223 C 123.399 238.401 122.539 233.747 123.48 229.287 C 124.42 224.827 127.084 220.925 130.884 218.44 L 217.709 161.697 C 219.591 160.466 221.695 159.62 223.902 159.208 C 226.109 158.795 228.375 158.824 230.571 159.292 C 232.767 159.761 234.849 160.659 236.7 161.937 C 238.55 163.215 240.133 164.847 241.356 166.74 C 242.579 168.632 243.42 170.749 243.83 172.969 C 244.241 175.188 244.212 177.468 243.746 179.676 C 243.281 181.885 242.387 183.979 241.117 185.84 C 239.846 187.702 238.224 189.293 236.342 190.524 V 190.654 Z" stroke-linecap="round"/>
</g>
		<g transform="matrix(1 0 0 1 11.1474 -124.3439)" id="Vector_3" clip-path="url(#CLIPPATH_19)">
<clipPath id="CLIPPATH_19">
	<rect transform="matrix(1 0 0 1 -11.1474 124.3439)" id="clip0" x="-264" y="-209.5" rx="0" ry="0" width="528" height="419"/>
</clipPath>
<path style="stroke: none; stroke-width: 1; stroke-dasharray: none; stroke-linecap: butt; stroke-dashoffset: 0; stroke-linejoin: miter; stroke-miterlimit: 4; is-custom-font: none; font-file-url: none; fill: rgb(170,125,255); fill-rule: nonzero; opacity: 1;" transform=" translate(-275.1474, -85.1561)" d="M 348.916 57.1936 L 219.067 142.113 C 215.272 144.307 210.784 144.952 206.529 143.915 C 202.275 142.877 198.579 140.236 196.204 136.537 C 193.83 132.838 192.958 128.363 193.769 124.036 C 194.581 119.71 197.013 115.861 200.563 113.286 L 330.412 28.692 C 332.294 27.4614 334.399 26.6158 336.605 26.2033 C 338.812 25.7907 341.078 25.8194 343.274 26.2877 C 345.47 26.756 347.553 27.6547 349.403 28.9326 C 351.254 30.2104 352.836 31.8423 354.059 33.7351 C 355.283 35.6279 356.124 37.7445 356.534 39.9642 C 356.944 42.1838 356.915 44.463 356.45 46.6715 C 355.984 48.88 355.091 50.9747 353.82 52.8359 C 352.55 54.6971 350.927 56.2884 349.045 57.519 L 348.916 57.1936 Z" stroke-linecap="round"/>
</g>
		<g transform="matrix(1 0 0 1 -141.3327 -24.6917)" id="Vector_4" clip-path="url(#CLIPPATH_20)">
<clipPath id="CLIPPATH_20">
	<rect transform="matrix(1 0 0 1 141.3326 24.6917)" id="clip0" x="-264" y="-209.5" rx="0" ry="0" width="528" height="419"/>
</clipPath>
<path style="stroke: none; stroke-width: 1; stroke-dasharray: none; stroke-linecap: butt; stroke-dashoffset: 0; stroke-linejoin: miter; stroke-miterlimit: 4; is-custom-font: none; font-file-url: none; fill: rgb(56,155,243); fill-rule: nonzero; opacity: 1;" transform=" translate(-122.6674, -184.8083)" d="M 175.396 170.688 L 88.5714 227.756 C 86.6895 228.987 84.585 229.832 82.3781 230.245 C 80.1713 230.657 77.9052 230.629 75.7094 230.16 C 73.5136 229.692 71.4309 228.793 69.5804 227.515 C 67.7299 226.238 66.1478 224.606 64.9243 222.713 C 63.7008 220.82 62.86 218.703 62.4499 216.484 C 62.0397 214.264 62.0683 211.985 62.5339 209.777 C 62.9995 207.568 63.893 205.473 65.1635 203.612 C 66.434 201.751 68.0565 200.16 69.9384 198.929 L 156.763 141.861 C 160.564 139.375 165.19 138.511 169.625 139.456 C 174.06 140.402 177.939 143.081 180.41 146.904 C 182.881 150.726 183.741 155.38 182.801 159.84 C 181.86 164.301 179.197 168.203 175.396 170.688 Z" stroke-linecap="round"/>
</g>
		<g transform="matrix(1 0 0 1 114.4684 -192.0492)" id="Vector_5" clip-path="url(#CLIPPATH_21)">
<clipPath id="CLIPPATH_21">
	<rect transform="matrix(1 0 0 1 -114.4683 192.0491)" id="clip0" x="-264" y="-209.5" rx="0" ry="0" width="528" height="419"/>
</clipPath>
<path style="stroke: none; stroke-width: 1; stroke-dasharray: none; stroke-linecap: butt; stroke-dashoffset: 0; stroke-linejoin: miter; stroke-miterlimit: 4; is-custom-font: none; font-file-url: none; fill: rgb(255,157,35); fill-rule: nonzero; opacity: 1;" transform=" translate(-378.4683, -17.4509)" d="M 388.188 31.6218 L 387.411 32.1424 C 385.529 33.3729 383.425 34.2186 381.218 34.6311 C 379.011 35.0437 376.745 35.015 374.549 34.5467 C 372.353 34.0784 370.271 33.1797 368.42 31.9018 C 366.57 30.624 364.988 28.9921 363.764 27.0993 C 362.541 25.2065 361.7 23.0899 361.29 20.8702 C 360.88 18.6506 360.908 16.3714 361.374 14.1629 C 361.839 11.9544 362.733 9.85969 364.003 7.99847 C 365.274 6.13726 366.896 4.54595 368.778 3.31542 L 369.425 2.79484 C 371.307 1.55575 373.413 0.701619 375.623 0.281201 C 377.833 -0.139217 380.104 -0.117685 382.306 0.344567 C 384.508 0.806819 386.598 1.70074 388.456 2.97529 C 390.314 4.24984 391.905 5.88005 393.137 7.77286 C 394.369 9.66567 395.218 11.784 395.636 14.0069 C 396.054 16.2298 396.033 18.5137 395.573 20.7283 C 395.114 22.9429 394.225 25.0448 392.958 26.9139 C 391.69 28.783 390.069 30.3827 388.188 31.6218 V 31.6218 Z" stroke-linecap="round"/>
</g>
		<g transform="matrix(1 0 0 1 65.2235 -40.1162)" id="Vector_6" clip-path="url(#CLIPPATH_22)">
<clipPath id="CLIPPATH_22">
	<rect transform="matrix(1 0 0 1 -65.2236 40.1161)" id="clip0" x="-264" y="-209.5" rx="0" ry="0" width="528" height="419"/>
</clipPath>
<path style="stroke: none; stroke-width: 1; stroke-dasharray: none; stroke-linecap: butt; stroke-dashoffset: 0; stroke-linejoin: miter; stroke-miterlimit: 4; is-custom-font: none; font-file-url: none; fill: rgb(56,155,243); fill-rule: nonzero; opacity: 0.5;" transform=" translate(-329.2236, -169.3839)" d="M 403.263 141.336 L 273.479 226.255 C 269.671 228.59 265.109 229.342 260.759 228.349 C 256.41 227.357 252.616 224.699 250.184 220.939 C 247.751 217.18 246.87 212.615 247.728 208.213 C 248.587 203.812 251.117 199.92 254.781 197.363 L 384.63 112.769 C 386.512 111.539 388.616 110.693 390.823 110.28 C 393.03 109.868 395.296 109.897 397.492 110.365 C 399.688 110.833 401.77 111.732 403.621 113.01 C 405.472 114.288 407.054 115.92 408.277 117.812 C 409.501 119.705 410.341 121.822 410.752 124.041 C 411.162 126.261 411.133 128.54 410.668 130.749 C 410.202 132.957 409.308 135.052 408.038 136.913 C 406.767 138.774 405.145 140.366 403.263 141.596 V 141.336 Z" stroke-linecap="round"/>
</g>
		<g transform="matrix(1 0 0 1 -86.5713 58.9759)" id="Vector_7" clip-path="url(#CLIPPATH_23)">
<clipPath id="CLIPPATH_23">
	<rect transform="matrix(1 0 0 1 86.5713 -58.9758)" id="clip0" x="-264" y="-209.5" rx="0" ry="0" width="528" height="419"/>
</clipPath>
<path style="stroke: none; stroke-width: 1; stroke-dasharray: none; stroke-linecap: butt; stroke-dashoffset: 0; stroke-linejoin: miter; stroke-miterlimit: 4; is-custom-font: none; font-file-url: none; fill: rgb(170,125,255); fill-rule: nonzero; opacity: 0.5;" transform=" translate(-177.4287, -268.4758)" d="M 229.743 254.814 L 142.918 311.557 C 139.117 314.042 134.491 314.907 130.056 313.961 C 125.621 313.015 121.742 310.336 119.271 306.514 C 116.8 302.691 115.94 298.038 116.881 293.577 C 117.821 289.117 120.484 285.215 124.285 282.73 L 211.11 225.922 C 212.993 224.542 215.136 223.563 217.407 223.045 C 219.679 222.526 222.032 222.478 224.323 222.904 C 226.613 223.331 228.793 224.222 230.73 225.524 C 232.667 226.826 234.32 228.511 235.587 230.477 C 236.855 232.442 237.711 234.647 238.104 236.957 C 238.496 239.266 238.416 241.632 237.869 243.91 C 237.322 246.187 236.32 248.329 234.922 250.203 C 233.525 252.078 231.763 253.647 229.743 254.814 V 254.814 Z" stroke-linecap="round"/>
</g>
		<g transform="matrix(1 0 0 1 168.8938 -108.0387)" id="Vector_8" clip-path="url(#CLIPPATH_24)">
<clipPath id="CLIPPATH_24">
	<rect transform="matrix(1 0 0 1 -168.8939 108.0388)" id="clip0" x="-264" y="-209.5" rx="0" ry="0" width="528" height="419"/>
</clipPath>
<path style="stroke: none; stroke-width: 1; stroke-dasharray: none; stroke-linecap: butt; stroke-dashoffset: 0; stroke-linejoin: miter; stroke-miterlimit: 4; is-custom-font: none; font-file-url: none; fill: rgb(255,157,35); fill-rule: nonzero; opacity: 0.5;" transform=" translate(-432.8939, -101.4612)" d="M 442.47 115.762 L 441.629 116.283 C 437.825 118.48 433.328 119.128 429.064 118.092 C 424.8 117.056 421.093 114.415 418.705 110.714 C 416.318 107.012 415.432 102.531 416.231 98.1924 C 417.029 93.8538 419.45 89.988 422.996 87.3905 L 423.772 86.8699 C 427.58 84.5346 432.142 83.7834 436.492 84.7759 C 440.841 85.7683 444.634 88.4263 447.067 92.1856 C 449.5 95.945 450.381 100.51 449.523 104.912 C 448.664 109.313 446.134 113.206 442.47 115.762 V 115.762 Z" stroke-linecap="round"/>
</g>
		<g transform="matrix(1 0 0 1 -6.7283 38.097)" id="Vector_9" clip-path="url(#CLIPPATH_25)">
<clipPath id="CLIPPATH_25">
	<rect transform="matrix(1 0 0 1 6.7283 -38.097)" id="clip0" x="-264" y="-209.5" rx="0" ry="0" width="528" height="419"/>
</clipPath>
<path style="stroke: rgb(115,46,84); stroke-width: 2; stroke-dasharray: none; stroke-linecap: butt; stroke-dashoffset: 0; stroke-linejoin: miter; stroke-miterlimit: 10; is-custom-font: none; font-file-url: none; fill: none; fill-rule: nonzero; opacity: 1;" transform=" translate(-257.2717, -247.597)" d="M 55.1875 347.421 C 56.1353 294.145 77.8429 243.373 115.638 206.033 C 153.433 168.694 204.293 147.773 257.272 147.773 C 310.25 147.773 361.11 168.694 398.905 206.033 C 436.7 243.373 458.408 294.145 459.356 347.421" stroke-linecap="round"/>
</g>
		<g transform="matrix(1 0 0 1 -5.9195 -60.3536)" id="Vector_10" clip-path="url(#CLIPPATH_26)">
<linearGradient id="SVGID_12" gradientUnits="userSpaceOnUse" gradientTransform="matrix(1 0 0 1 0 0)" x1="258.08" y1="98.8458" x2="258.08" y2="199.512">
<stop offset="4%" style="stop-color:rgb(242,123,64);stop-opacity: 1"/>
<stop offset="100%" style="stop-color:rgb(236,105,125);stop-opacity: 1"/>
</linearGradient>
<clipPath id="CLIPPATH_26">
	<rect transform="matrix(1 0 0 1 5.9195 60.3536)" id="clip0" x="-264" y="-209.5" rx="0" ry="0" width="528" height="419"/>
</clipPath>
<path style="stroke: none; stroke-width: 1; stroke-dasharray: none; stroke-linecap: butt; stroke-dashoffset: 0; stroke-linejoin: miter; stroke-miterlimit: 4; is-custom-font: none; font-file-url: none; fill: url(#SVGID_12); fill-rule: nonzero; opacity: 1;" transform=" translate(-258.0805, -149.1464)" d="M 308.092 199.447 V 98.8458 H 208.069 V 199.447 H 308.092 Z" stroke-linecap="round"/>
</g>
		<g transform="matrix(1 0 0 1 -3.9135 -58.343)" id="Vector_11" clip-path="url(#CLIPPATH_27)">
<clipPath id="CLIPPATH_27">
	<rect transform="matrix(1 0 0 1 3.9135 58.343)" id="clip0" x="-264" y="-209.5" rx="0" ry="0" width="528" height="419"/>
</clipPath>
<path style="stroke: rgb(115,46,84); stroke-width: 2; stroke-dasharray: none; stroke-linecap: butt; stroke-dashoffset: 0; stroke-linejoin: miter; stroke-miterlimit: 10; is-custom-font: none; font-file-url: none; fill: none; fill-rule: nonzero; opacity: 1;" transform=" translate(-260.0865, -151.157)" d="M 310.098 201.458 V 100.856 H 210.075 V 201.458 H 310.098 Z" stroke-linecap="round"/>
</g>
		<g transform="matrix(1 0 0 1 -128.8458 -59.386)" id="Vector_12" clip-path="url(#CLIPPATH_28)">
<clipPath id="CLIPPATH_28">
	<rect transform="matrix(1 0 0 1 128.8458 59.386)" id="clip0" x="-264" y="-209.5" rx="0" ry="0" width="528" height="419"/>
</clipPath>
<path style="stroke: rgb(115,46,84); stroke-width: 2; stroke-dasharray: none; stroke-linecap: butt; stroke-dashoffset: 0; stroke-linejoin: miter; stroke-miterlimit: 10; is-custom-font: none; font-file-url: none; fill: none; fill-rule: nonzero; opacity: 1;" transform=" translate(-135.1542, -150.114)" d="M 208.263 150.114 H 105.911 H 62.0454" stroke-linecap="round"/>
</g>
		<g transform="matrix(1 0 0 1 121.245 -59.386)" id="Vector_13" clip-path="url(#CLIPPATH_29)">
<clipPath id="CLIPPATH_29">
	<rect transform="matrix(1 0 0 1 -121.245 59.386)" id="clip0" x="-264" y="-209.5" rx="0" ry="0" width="528" height="419"/>
</clipPath>
<path style="stroke: rgb(115,46,84); stroke-width: 2; stroke-dasharray: none; stroke-linecap: butt; stroke-dashoffset: 0; stroke-linejoin: miter; stroke-miterlimit: 10; is-custom-font: none; font-file-url: none; fill: none; fill-rule: nonzero; opacity: 1;" transform=" translate(-385.245, -150.114)" d="M 312.104 150.114 H 458.386" stroke-linecap="round"/>
</g>
		<g transform="matrix(1 0 0 1 198.073 163.301)" id="Vector_14" clip-path="url(#CLIPPATH_30)">
<linearGradient id="SVGID_13" gradientUnits="userSpaceOnUse" gradientTransform="matrix(1 0 0 1 0 0)" x1="-1978.36" y1="-5204.79" x2="-1978.36" y2="-5819.58">
<stop offset="4%" style="stop-color:rgb(242,123,64);stop-opacity: 1"/>
<stop offset="100%" style="stop-color:rgb(236,105,125);stop-opacity: 1"/>
</linearGradient>
<clipPath id="CLIPPATH_30">
	<rect transform="matrix(1 0 0 1 -198.073 -163.301)" id="clip0" x="-264" y="-209.5" rx="0" ry="0" width="528" height="419"/>
</clipPath>
<path style="stroke: none; stroke-width: 1; stroke-dasharray: none; stroke-linecap: butt; stroke-dashoffset: 0; stroke-linejoin: miter; stroke-miterlimit: 4; is-custom-font: none; font-file-url: none; fill: url(#SVGID_13); fill-rule: nonzero; opacity: 1;" transform=" translate(-462.073, -372.801)" d="M 462.073 404.426 C 479.439 404.426 493.516 390.267 493.516 372.801 C 493.516 355.335 479.439 341.176 462.073 341.176 C 444.707 341.176 430.63 355.335 430.63 372.801 C 430.63 390.267 444.707 404.426 462.073 404.426 Z" stroke-linecap="round"/>
</g>
		<g transform="matrix(1 0 0 1 196.714 164.667)" id="Vector_15" clip-path="url(#CLIPPATH_31)">
<clipPath id="CLIPPATH_31">
	<rect transform="matrix(1 0 0 1 -196.714 -164.667)" id="clip0" x="-264" y="-209.5" rx="0" ry="0" width="528" height="419"/>
</clipPath>
<path style="stroke: rgb(115,46,84); stroke-width: 2; stroke-dasharray: none; stroke-linecap: butt; stroke-dashoffset: 0; stroke-linejoin: miter; stroke-miterlimit: 10; is-custom-font: none; font-file-url: none; fill: none; fill-rule: nonzero; opacity: 1;" transform=" translate(-460.714, -374.167)" d="M 460.714 405.792 C 478.079 405.792 492.157 391.633 492.157 374.167 C 492.157 356.701 478.079 342.542 460.714 342.542 C 443.348 342.542 429.271 356.701 429.271 374.167 C 429.271 391.633 443.348 405.792 460.714 405.792 Z" stroke-linecap="round"/>
</g>
		<g transform="matrix(1 0 0 1 -227.4455 -58.665)" id="Vector_16" clip-path="url(#CLIPPATH_32)">
<linearGradient id="SVGID_14" gradientUnits="userSpaceOnUse" gradientTransform="matrix(1 0 0 1 0 0)" x1="-1055.16" y1="18397.9" x2="-1055.16" y2="19012">
<stop offset="4%" style="stop-color:rgb(242,123,64);stop-opacity: 1"/>
<stop offset="100%" style="stop-color:rgb(236,105,125);stop-opacity: 1"/>
</linearGradient>
<clipPath id="CLIPPATH_32">
	<rect transform="matrix(1 0 0 1 227.4455 58.665)" id="clip0" x="-264" y="-209.5" rx="0" ry="0" width="528" height="419"/>
</clipPath>
<path style="stroke: none; stroke-width: 1; stroke-dasharray: none; stroke-linecap: butt; stroke-dashoffset: 0; stroke-linejoin: miter; stroke-miterlimit: 4; is-custom-font: none; font-file-url: none; fill: url(#SVGID_14); fill-rule: nonzero; opacity: 1;" transform=" translate(-36.5545, -150.835)" d="M 36.5545 182.46 C 53.9201 182.46 67.9977 168.301 67.9977 150.835 C 67.9977 133.369 53.9201 119.21 36.5545 119.21 C 19.1889 119.21 5.11133 133.369 5.11133 150.835 C 5.11133 168.301 19.1889 182.46 36.5545 182.46 Z" stroke-linecap="round"/>
</g>
		<g transform="matrix(1 0 0 1 -226.0866 -60.031)" id="Vector_17" clip-path="url(#CLIPPATH_33)">
<clipPath id="CLIPPATH_33">
	<rect transform="matrix(1 0 0 1 226.0866 60.031)" id="clip0" x="-264" y="-209.5" rx="0" ry="0" width="528" height="419"/>
</clipPath>
<path style="stroke: rgb(115,46,84); stroke-width: 2; stroke-dasharray: none; stroke-linecap: butt; stroke-dashoffset: 0; stroke-linejoin: miter; stroke-miterlimit: 10; is-custom-font: none; font-file-url: none; fill: none; fill-rule: nonzero; opacity: 1;" transform=" translate(-37.9134, -149.469)" d="M 37.9134 181.094 C 55.279 181.094 69.3566 166.935 69.3566 149.469 C 69.3566 132.003 55.279 117.844 37.9134 117.844 C 20.5478 117.844 6.47021 132.003 6.47021 149.469 C 6.47021 166.935 20.5478 181.094 37.9134 181.094 Z" stroke-linecap="round"/>
</g>
		<g transform="matrix(1 0 0 1 -206.0949 163.301)" id="Vector_18" clip-path="url(#CLIPPATH_34)">
<linearGradient id="SVGID_15" gradientUnits="userSpaceOnUse" gradientTransform="matrix(1 0 0 1 0 0)" x1="-5906.88" y1="-4798.28" x2="-5906.88" y2="-5413.08">
<stop offset="4%" style="stop-color:rgb(242,123,64);stop-opacity: 1"/>
<stop offset="100%" style="stop-color:rgb(236,105,125);stop-opacity: 1"/>
</linearGradient>
<clipPath id="CLIPPATH_34">
	<rect transform="matrix(1 0 0 1 206.0949 -163.301)" id="clip0" x="-264" y="-209.5" rx="0" ry="0" width="528" height="419"/>
</clipPath>
<path style="stroke: none; stroke-width: 1; stroke-dasharray: none; stroke-linecap: butt; stroke-dashoffset: 0; stroke-linejoin: miter; stroke-miterlimit: 4; is-custom-font: none; font-file-url: none; fill: url(#SVGID_15); fill-rule: nonzero; opacity: 1;" transform=" translate(-57.9051, -372.801)" d="M 57.9051 404.426 C 75.2707 404.426 89.3483 390.267 89.3483 372.801 C 89.3483 355.335 75.2707 341.176 57.9051 341.176 C 40.5395 341.176 26.4619 355.335 26.4619 372.801 C 26.4619 390.267 40.5395 404.426 57.9051 404.426 Z" stroke-linecap="round"/>
</g>
		<g transform="matrix(1 0 0 1 -207.4543 164.667)" id="Vector_19" clip-path="url(#CLIPPATH_35)">
<clipPath id="CLIPPATH_35">
	<rect transform="matrix(1 0 0 1 207.4543 -164.667)" id="clip0" x="-264" y="-209.5" rx="0" ry="0" width="528" height="419"/>
</clipPath>
<path style="stroke: rgb(115,46,84); stroke-width: 2; stroke-dasharray: none; stroke-linecap: butt; stroke-dashoffset: 0; stroke-linejoin: miter; stroke-miterlimit: 10; is-custom-font: none; font-file-url: none; fill: none; fill-rule: nonzero; opacity: 1;" transform=" translate(-56.5457, -374.167)" d="M 56.5458 405.792 C 73.9114 405.792 87.989 391.633 87.989 374.167 C 87.989 356.701 73.9114 342.542 56.5458 342.542 C 39.1801 342.542 25.1025 356.701 25.1025 374.167 C 25.1025 391.633 39.1801 405.792 56.5458 405.792 Z" stroke-linecap="round"/>
</g>
		<g transform="matrix(1 0 0 1 224.7295 -58.665)" id="Vector_20" clip-path="url(#CLIPPATH_36)">
<linearGradient id="SVGID_16" gradientUnits="userSpaceOnUse" gradientTransform="matrix(1 0 0 1 0 0)" x1="-9410.18" y1="18852.7" x2="-9410.18" y2="19466.8">
<stop offset="4%" style="stop-color:rgb(242,123,64);stop-opacity: 1"/>
<stop offset="100%" style="stop-color:rgb(236,105,125);stop-opacity: 1"/>
</linearGradient>
<clipPath id="CLIPPATH_36">
	<rect transform="matrix(1 0 0 1 -224.7295 58.665)" id="clip0" x="-264" y="-209.5" rx="0" ry="0" width="528" height="419"/>
</clipPath>
<path style="stroke: none; stroke-width: 1; stroke-dasharray: none; stroke-linecap: butt; stroke-dashoffset: 0; stroke-linejoin: miter; stroke-miterlimit: 4; is-custom-font: none; font-file-url: none; fill: url(#SVGID_16); fill-rule: nonzero; opacity: 1;" transform=" translate(-488.7295, -150.835)" d="M 488.729 182.46 C 506.095 182.46 520.173 168.301 520.173 150.835 C 520.173 133.369 506.095 119.21 488.729 119.21 C 471.364 119.21 457.286 133.369 457.286 150.835 C 457.286 168.301 471.364 182.46 488.729 182.46 Z" stroke-linecap="round"/>
</g>
		<g transform="matrix(1 0 0 1 226.087 -60.031)" id="Vector_21" clip-path="url(#CLIPPATH_37)">
<clipPath id="CLIPPATH_37">
	<rect transform="matrix(1 0 0 1 -226.087 60.031)" id="clip0" x="-264" y="-209.5" rx="0" ry="0" width="528" height="419"/>
</clipPath>
<path style="stroke: rgb(115,46,84); stroke-width: 2; stroke-dasharray: none; stroke-linecap: butt; stroke-dashoffset: 0; stroke-linejoin: miter; stroke-miterlimit: 10; is-custom-font: none; font-file-url: none; fill: none; fill-rule: nonzero; opacity: 1;" transform=" translate(-490.087, -149.469)" d="M 490.087 181.094 C 507.452 181.094 521.53 166.935 521.53 149.469 C 521.53 132.003 507.452 117.844 490.087 117.844 C 472.721 117.844 458.644 132.003 458.644 149.469 C 458.644 166.935 472.721 181.094 490.087 181.094 Z" stroke-linecap="round"/>
</g>
		<g transform="matrix(1 0 0 1 2.7212 86.3065)" id="Vector_22" clip-path="url(#CLIPPATH_38)">
<clipPath id="CLIPPATH_38">
	<rect transform="matrix(1 0 0 1 -2.7213 -86.3065)" id="clip0" x="-264" y="-209.5" rx="0" ry="0" width="528" height="419"/>
</clipPath>
<path style="stroke: none; stroke-width: 1; stroke-dasharray: none; stroke-linecap: butt; stroke-dashoffset: 0; stroke-linejoin: miter; stroke-miterlimit: 4; is-custom-font: none; font-file-url: none; fill: rgb(255,255,255); fill-rule: nonzero; opacity: 1;" transform=" translate(-266.7213, -295.8065)" d="M 258.08 177.832 C 258.412 177.265 258.884 176.795 259.452 176.469 C 260.019 176.142 260.662 175.97 261.315 175.97 C 261.969 175.97 262.611 176.142 263.179 176.469 C 263.746 176.795 264.219 177.265 264.55 177.832 L 327.113 292.814 L 386.571 402.526 C 387.125 403.48 387.371 404.582 387.275 405.683 C 387.18 406.783 386.747 407.826 386.038 408.668 C 385.328 409.511 384.375 410.111 383.312 410.386 C 382.249 410.661 381.127 410.598 380.101 410.205 L 267.526 373.113 C 266.372 372.722 265.122 372.722 263.968 373.113 L 153.076 415.41 C 152.092 415.711 151.043 415.72 150.054 415.439 C 149.065 415.157 148.177 414.596 147.496 413.821 C 146.814 413.047 146.368 412.092 146.211 411.07 C 146.053 410.049 146.19 409.003 146.606 408.057 L 201.146 295.743 L 258.08 177.832 Z" stroke-linecap="round"/>
</g>
		<g transform="matrix(1 0 0 1 4.2552 168.8607)" id="Vector_23" clip-path="url(#CLIPPATH_39)">
<clipPath id="CLIPPATH_39">
	<rect transform="matrix(1 0 0 1 -4.2552 -168.8607)" id="clip0" x="-264" y="-209.5" rx="0" ry="0" width="528" height="419"/>
</clipPath>
<path style="stroke: none; stroke-width: 1; stroke-dasharray: none; stroke-linecap: butt; stroke-dashoffset: 0; stroke-linejoin: miter; stroke-miterlimit: 4; is-custom-font: none; font-file-url: none; fill: rgb(206,193,188); fill-rule: nonzero; opacity: 1;" transform=" translate(-268.2552, -378.3607)" d="M 381.718 405.53 L 269.144 368.373 C 267.99 367.982 266.74 367.982 265.585 368.373 L 154.628 410.67 C 153.641 411.002 152.579 411.033 151.575 410.762 C 150.57 410.491 149.666 409.929 148.977 409.145 C 148.287 408.361 147.842 407.391 147.697 406.355 C 147.551 405.319 147.712 404.262 148.159 403.317 L 158.122 382.82 L 265.262 346.119 C 266.449 345.663 267.762 345.663 268.95 346.119 L 379.907 382.624 L 388.188 397.916 C 388.719 398.869 388.947 399.962 388.84 401.049 C 388.734 402.135 388.299 403.163 387.593 403.993 C 386.888 404.823 385.947 405.415 384.896 405.69 C 383.845 405.965 382.736 405.909 381.718 405.53 V 405.53 Z" stroke-linecap="round"/>
</g>
		<g transform="matrix(1 0 0 1 3.707 83.0292)" id="Vector_24" clip-path="url(#CLIPPATH_40)">
<clipPath id="CLIPPATH_40">
	<rect transform="matrix(1 0 0 1 -3.707 -83.0292)" id="clip0" x="-264" y="-209.5" rx="0" ry="0" width="528" height="419"/>
</clipPath>
<path style="stroke: rgb(115,46,84); stroke-width: 2; stroke-dasharray: none; stroke-linecap: butt; stroke-dashoffset: 0; stroke-linejoin: miter; stroke-miterlimit: 10; is-custom-font: none; font-file-url: none; fill: none; fill-rule: nonzero; opacity: 1;" transform=" translate(-267.707, -292.5292)" d="M 259.18 174.517 C 259.512 173.95 259.984 173.48 260.552 173.153 C 261.119 172.827 261.762 172.655 262.415 172.655 C 263.069 172.655 263.711 172.827 264.279 173.153 C 264.846 173.48 265.319 173.95 265.65 174.517 L 328.019 289.694 L 387.476 399.471 C 388.03 400.425 388.277 401.527 388.181 402.628 C 388.086 403.728 387.653 404.771 386.943 405.614 C 386.234 406.456 385.281 407.056 384.218 407.331 C 383.155 407.607 382.033 407.543 381.007 407.15 L 268.626 369.863 C 267.477 369.44 266.217 369.44 265.068 369.863 L 154.176 412.16 C 153.184 412.47 152.125 412.484 151.126 412.201 C 150.127 411.917 149.23 411.349 148.546 410.564 C 147.861 409.779 147.418 408.811 147.269 407.778 C 147.119 406.745 147.271 405.69 147.706 404.742 L 202.246 292.427 L 259.18 174.517 Z" stroke-linecap="round"/>
</g>
</g>
</g>
</svg>